<svg width="312" height="99.999" viewBox="0 0 82.55 26.458" xmlns="http://www.w3.org/2000/svg" shape-rendering="crispEdges"><path d="M0 0h1.058v20.186H0zM1.587 0h.529v20.186h-.529zM3.175 0h.529v20.186h-.529zM5.821 0h1.058v20.186H5.821zM7.938 0h1.587v20.186H7.938zM10.054 0h.529v20.186h-.529zM11.642 0H12.7v20.186h-1.058zM13.758 0h.529v20.186h-.529zM15.346 0h1.587v20.186h-1.587zM17.462 0h1.587v20.186h-1.587zM19.579 0h1.058v20.186h-1.058zM21.167 0h1.587v20.186h-1.587zM23.283 0h1.058v20.186h-1.058zM24.871 0h1.058v20.186h-1.058zM26.988 0h1.058v20.186h-1.058zM29.104 0h1.058v20.186h-1.058zM31.221 0h1.587v20.186h-1.587zM33.337 0h.529v20.186h-.529zM34.925 0h1.587v20.186h-1.587zM37.042 0H38.1v20.186h-1.058zM38.629 0h1.587v20.186h-1.587zM40.746 0h1.587v20.186h-1.587zM42.862 0h1.058v20.186h-1.058zM44.45 0h1.587v20.186H44.45zM46.567 0h1.058v20.186h-1.058zM48.154 0h1.058v20.186h-1.058zM50.271 0h1.058v20.186h-1.058zM52.388 0h.529v20.186h-.529zM53.446 0h1.587v20.186h-1.587zM55.563 0h2.117v20.186h-2.117zM58.208 0h1.587v20.186h-1.587zM60.325 0h1.058v20.186h-1.058zM61.913 0h.529v20.186h-.529zM64.029 0h.529v20.186h-.529zM66.146 0h.529v20.186h-.529zM67.204 0h2.117v20.186h-2.117zM69.85 0h1.058v20.186H69.85zM71.438 0h.529v20.186h-.529zM73.554 0h1.587v20.186h-1.587zM75.671 0h1.058v20.186h-1.058zM78.317 0h1.587v20.186h-1.587zM80.433 0h.529v20.186h-.529zM81.492 0h1.058v20.186h-1.058z"/></svg>