<?xml version="1.0" standalone="no"?>
<svg xmlns="http://www.w3.org/2000/svg" xmlns:xlink="http://www.w3.org/1999/xlink" style="isolation:isolate" viewBox="0 0 500 500" width="500" height="500">
    <g>
        <path d="m466.5625 45.921875c-.023438-.023437-.046875-.050781-.074219-.074219-29.601562-29.566406-68.9375-45.847656-110.777343-45.847656-41.871094 0-81.238282 16.304688-110.84375 45.914062-42.574219 42.574219-55.410157 87.367188-67.820313 130.6875-12.636719 44.113282-24.574219 85.777344-66.652344 127.855469-2.816406 2.820313-4.402343 6.640625-4.402343 10.628907 0 3.984374 1.582031 7.808593 4.402343 10.625l2.507813 2.507812-40.199219 40.199219c-6.941406-3.597657-14.691406-5.503907-22.734375-5.503907-13.21875 0-25.648438 5.148438-34.996094 14.496094-19.296875 19.296875-19.296875 50.695313 0 69.992188 9.3125 9.3125 21.761719 14.582031 35.050782 14.835937h.210937c0 .070313.003906.144531.003906.210938.253907 13.292969 5.523438 25.738281 14.835938 35.054687 9.347656 9.347656 21.773437 14.496094 34.996093 14.496094 13.21875 0 25.648438-5.148438 34.996094-14.496094s14.496094-21.777344 14.496094-34.996094c0-8.042968-1.90625-15.792968-5.503906-22.734374l40.199218-40.199219 2.507813 2.507812c2.933594 2.933594 6.78125 4.402344 10.625 4.402344 3.847656 0 7.695313-1.46875 10.628906-4.402344 42.078125-42.082031 83.742188-54.015625 127.855469-66.652343 43.320312-12.414063 88.113281-25.246094 130.6875-67.820313 61.121094-61.117187 61.121094-160.566406 0-221.6875zm-352.75 381.589844c-2.820312 2.820312-4.402344 6.640625-4.402344 10.625 0 3.988281 1.582032 7.8125 4.402344 10.628906 3.667969 3.671875 5.691406 8.550781 5.691406 13.742187 0 5.191407-2.023437 10.070313-5.691406 13.742188-3.671875 3.667969-8.550781 5.691406-13.742188 5.691406-5.191406 0-10.070312-2.023437-13.742187-5.691406-3.734375-3.734375-5.933594-8.96875-6.035156-14.367188-.101563-5.34375 1.800781-10.246093 5.355469-13.796874 2.933593-2.9375 4.402343-6.78125 4.402343-10.628907 0-3.84375-1.46875-7.691406-4.402343-10.625-5.867188-5.871093-15.386719-5.871093-21.253907 0-7.453125 7.449219-20.351562 7.136719-28.167969-.683593-7.574218-7.578126-7.574218-19.90625 0-27.480469 3.671876-3.671875 8.550782-5.695313 13.742188-5.695313s10.074219 2.023438 13.742188 5.695313c2.820312 2.816406 6.640624 4.402343 10.628906 4.402343 3.984375 0 7.808594-1.585937 10.625-4.402343l49.191406-49.195313 28.847656 28.847656zm213.785156-120.980469c-42.339844 12.128906-86.011718 24.644531-129.917968 63.957031l-55.691407-55.691406c39.3125-43.90625 51.828125-87.578125 63.957031-129.917969 11.878907-41.46875 23.101563-80.636718 60.175782-117.710937 23.929687-23.929688 55.746094-37.109375 89.589844-37.109375 33.839843 0 65.660156 13.179687 89.589843 37.109375.023438.023437.046875.046875.070313.070312 49.335937 49.40625 49.316406 129.738281-.0625 179.117188-37.074219 37.074219-76.242188 48.296875-117.710938 60.175781zm0 0"/>
    </g>
</svg>
